<svg xmlns="http://www.w3.org/2000/svg" version="1.1" xmlns:xlink="http://www.w3.org/1999/xlink" xmlns:svgjs="http://svgjs.dev/svgjs" width="1000" height="1125" viewBox="0 0 1000 1125"><g transform="matrix(1,0,0,1,1.7053025658242404e-13,0)"><svg viewBox="0 0 320 360" data-background-color="#1b4571" preserveAspectRatio="xMidYMid meet" height="1125" width="1000" xmlns="http://www.w3.org/2000/svg" xmlns:xlink="http://www.w3.org/1999/xlink"><g id="tight-bounds" transform="matrix(1,0,0,1,0,0)"><svg viewBox="0 0 320 360" height="360" width="320"><g><svg></svg></g><g><svg viewBox="0 0 320 360" height="360" width="320"><g><path d="M20.961 227.22l3.726 4.658-1.863-6.056c-0.466-2.795-3.726 0.466-1.863 1.398M25.153 224.425c1.397 2.329 2.795 4.658 2.795 6.987 0 3.261 2.795 4.658 5.123 5.589-3.261-3.726-5.124-13.974-7.918-12.576M204.017 26.929c7.918 0 15.371-0.932 23.756 0.931 20.495 5.124 37.729 15.371 49.374 29.811l32.606 52.169c1.397 13.042 4.192 27.482 3.726 43.319 3.261 0 2.795-4.658 6.521-5.59-3.726 9.316-5.59 20.961-6.521 34.469-2.329-7.453 0-18.632 0.466-24.687-3.261 5.124-5.124 1.397-5.124-0.932 0.466-3.726-1.397-3.261-2.795-4.658-5.124-4.658-8.384-9.782-12.11-17.7 2.329-6.055 2.795-14.905-4.658-19.563-2.329-1.397-5.124-3.726-6.521-7.453-1.863-5.124-5.124-11.179-4.193-19.097 0.466-2.329-6.987 5.124-11.179 1.863-18.166-12.576-36.332-27.016-58.224-39.127-11.645 0-20.029-4.192-24.221-9.316-3.726-4.658-0.932-10.713 4.658-11.179 3.261 0 6.987-0.932 9.782 0.932 0.466-1.863 2.329-4.192 4.657-4.192M157.904 16.215l0.932 0.466c4.658 0.932 6.987 7.453 12.11 5.124 0 3.261 0.466 6.521-0.466 8.85-1.397 3.726-5.59 3.726-8.85 3.726-31.208-1.863-49.374 11.179-68.471 22.358-5.124 3.261-10.713 5.59-14.906 9.782-20.029 18.632-41.921 35.866-47.045 70.335l-4.192 38.195c-0.466 4.192-5.124 8.384-4.192 13.508l3.26 22.824c-3.261-3.261-5.124 0.932-4.192 2.795 0.466 1.397 2.329 6.055 5.124 1.863 3.726 6.987 7.453 20.495 12.576 26.55 15.837 18.632 36.332 35.4 53.101 52.169 4.192-0.932 7.453-0.932 8.384-3.727 1.397 2.795-1.397 5.59-3.726 6.056 7.453 4.658 15.837 8.85 27.016 9.781 14.44 0.932 27.948 3.261 40.524 6.522 6.521-1.863 13.042-2.795 20.029-3.261 2.329 0 3.726-3.726 6.521-4.658l0.466-4.658c2.795 4.192 2.329-1.397 0.466-4.192 3.261 2.795 4.192 5.124 5.589 6.987 0-1.397 3.726-6.521 3.727-0.466l0.931-6.055c1.397-0.932 1.863 5.124 3.261 0.931 1.397-4.192 4.192-0.932 6.987-2.329-0.932 1.863-0.466 5.59 2.794 3.261l3.727-3.261c2.329 5.59 6.055 3.261 7.918 2.329 20.495-13.042 40.99-28.413 60.553-43.784l-0.466 6.055 2.329-7.453c2.329 2.329 4.192 0.466 5.124-0.931 2.795-4.658 6.521-9.316 12.577-13.508-7.453 20.029-16.303 35.866-27.482 48.908l-4.658 5.59c0 3.261-0.932 7.453-4.658 7.918-1.863 0.466-5.59-0.932-8.384 1.863-1.397 1.863 3.261 5.59-0.466 2.795-3.261-2.329-6.521 0-10.248 0.932-2.795 0.932 1.863 3.726 2.795 5.589 0.932 1.863 1.863 3.726 1.398 6.056l-5.124-5.59c-6.055 3.261-9.782 9.316-14.906 13.974-2.329 1.863-1.397 5.124-1.397 7.918-3.261 0-6.987-0.932-8.85 0.932-1.397 1.863-0.932 4.658-0.932 7.453-4.658-0.466-5.124-7.453-9.315-6.056-4.192 0.932-8.85 1.397-12.577 3.727 2.795 5.59-4.658 2.329-3.726 3.26-6.987-4.192-13.042-7.453-20.495-4.658-15.837-5.124-35.4-2.795-49.84-0.931 0-2.329 0.466-4.658-0.466-5.124-0.932 2.329-3.726 1.397-3.26 1.397-8.85-6.055-17.7-9.782-27.016-14.905-8.384 0.932-16.303-3.261-18.632-5.59-6.521-6.055-13.974-2.795-20.029-4.192-13.042-3.261-17.7-16.769-19.098-26.084-0.932-4.658-4.658-6.521-6.055-6.056-6.055-19.563-15.371-37.263-22.824-55.429-1.863-4.658-1.397-9.316-1.397-14.44 2.329 0.932 4.658 0.466 4.192-2.794-2.329-15.371-7.918-27.016-13.974-38.195 3.261-15.837 3.726-34.469 11.179-48.443 6.521-12.576 18.632-19.098 27.016-29.811 2.795-3.726 2.795-8.85 5.59-12.11 9.316-9.316 18.632-19.098 28.879-27.482 4.658-3.726 10.247 0 17.234-1.397 2.329-8.384 11.645-15.837 20.495-13.508 3.726 0.932 11.179-8.85 13.508-9.782 3.726-1.397 1.863 3.726 1.863 6.987 8.85-6.987 20.961-10.713 32.14-14.906" fill="#ffffff" fill-rule="nonzero" stroke="none" stroke-width="1" stroke-linecap="butt" stroke-linejoin="miter" stroke-miterlimit="10" stroke-dasharray="" stroke-dashoffset="0" font-family="none" font-weight="none" font-size="none" text-anchor="none" style="mix-blend-mode: normal" data-fill-palette-color="tertiary"></path></g><g transform="matrix(1,0,0,1,64,139.24209315698678)"><svg viewBox="0 0 192 81.51581368602645" height="81.51581368602645" width="192"><g><svg viewBox="0 0 192 81.51581368602645" height="81.51581368602645" width="192"><g><svg viewBox="0 0 192 81.51581368602645" height="81.51581368602645" width="192"><g><svg viewBox="0 0 192 81.51581368602645" height="81.51581368602645" width="192"><g><svg viewBox="0 0 192 81.51581368602645" height="81.51581368602645" width="192"><g><svg viewBox="0 0 192 81.51581368602645" height="81.51581368602645" width="192"><g transform="matrix(1,0,0,1,0,0)"><svg width="192" viewBox="-0.24 -35.99 84.91 36.056666666665" height="81.51581368602645" data-palette-color="#ffffff"><path d="M42.72 0L33.54 0Q33.59-0.05 33.59-0.2L33.59-0.2Q33.59-0.54 33.33-1.34 33.06-2.15 32.74-3.05 32.42-3.96 32.08-4.76 31.74-5.57 31.59-5.91L31.59-5.91Q26.42-6.1 21.22-6.05 16.02-6.01 10.84-5.81L10.84-5.81Q10.69-5.47 10.35-4.66 10.01-3.86 9.69-2.98 9.38-2.1 9.11-1.32 8.84-0.54 8.84-0.2L8.84-0.2Q8.84-0.05 8.89 0L8.89 0-0.24 0Q0.05-0.34 0.46-1.1 0.88-1.86 1.29-2.71 1.71-3.56 2.1-4.37 2.49-5.18 2.69-5.62L2.69-5.62Q3.22-6.69 4.39-9.08 5.57-11.47 7.01-14.53 8.45-17.58 9.99-20.92 11.52-24.27 12.79-27.25 14.06-30.22 14.87-32.47 15.67-34.72 15.67-35.55L15.67-35.55Q15.67-35.64 15.65-35.77 15.63-35.89 15.53-35.89L15.53-35.89 26.95-35.89Q26.86-35.89 26.83-35.77 26.81-35.64 26.81-35.55L26.81-35.55Q26.81-34.72 27.61-32.47 28.42-30.22 29.69-27.25 30.96-24.27 32.5-20.92 34.03-17.58 35.47-14.53 36.91-11.47 38.06-9.08 39.21-6.69 39.75-5.62L39.75-5.62Q39.94-5.18 40.33-4.37 40.72-3.56 41.16-2.71 41.6-1.86 42.02-1.1 42.43-0.34 42.72 0L42.72 0ZM12.84-10.45L14.89-10.4Q22.17-10.4 29.49-10.69L29.49-10.69Q27.49-15.14 25.51-19.48 23.54-23.83 21.24-28.08L21.24-28.08Q18.9-23.78 16.89-19.34 14.89-14.89 12.84-10.45L12.84-10.45ZM84.67-35.99L84.67-35.99Q84.13-35.69 83.25-34.5 82.37-33.3 81.25-31.49 80.12-29.69 78.83-27.47 77.54-25.24 76.22-22.88 74.9-20.51 73.65-18.14 72.41-15.77 71.34-13.75 70.26-11.72 69.46-10.18 68.65-8.64 68.26-7.86L68.26-7.86 65.77-3.03Q65.38-2.25 64.99-1.49 64.6-0.73 64.11 0L64.11 0Q63.47 0.1 62.89 0.05 62.3 0 61.67 0L61.67 0 55.76 0Q55.22-1.03 54.2-3.05 53.17-5.08 51.83-7.69 50.49-10.3 48.87-13.31 47.26-16.31 45.63-19.34 43.99-22.36 42.38-25.22 40.77-28.08 39.38-30.35 37.99-32.62 36.91-34.13 35.84-35.64 35.25-35.99L35.25-35.99Q37.94-35.99 40.62-35.96 43.31-35.94 46.04-35.99L46.04-35.99Q45.9-35.89 45.87-35.72 45.85-35.55 45.85-35.4L45.85-35.4Q45.85-34.38 46.7-32.13 47.56-29.88 48.92-27 50.29-24.12 51.95-20.95 53.61-17.77 55.17-14.87 56.74-11.96 58.03-9.67 59.32-7.37 60.01-6.25L60.01-6.25Q60.64-7.37 61.96-9.67 63.28-11.96 64.84-14.87 66.4-17.77 68.06-20.95 69.72-24.12 71.07-27 72.41-29.88 73.29-32.13 74.17-34.38 74.17-35.4L74.17-35.4Q74.17-35.55 74.14-35.72 74.12-35.89 73.97-35.99L73.97-35.99Q76.66-35.94 79.32-35.96 81.98-35.99 84.67-35.99Z" opacity="1" transform="matrix(1,0,0,1,0,0)" fill="#ffffff" class="undefined-text-0" data-fill-palette-color="primary" id="text-0"></path></svg></g></svg></g></svg></g></svg></g><g></g></svg></g></svg></g></svg></g></svg></g><defs></defs></svg><rect width="320" height="360" fill="none" stroke="none" visibility="hidden"></rect></g></svg></g></svg>